<mxfile host="app.diagrams.net" modified="2023-09-05T15:19:38.021Z" agent="Mozilla/5.0 (X11; Linux x86_64) AppleWebKit/537.36 (KHTML, like Gecko) Chrome/112.0.0.0 Safari/537.36" etag="0uwup2Qi3uTvAbRNeMlf" version="21.7.2" type="github">
  <diagram name="Page-1" id="ptgx6MRMU3JIALGFSwDf">
    <mxGraphModel dx="2915" dy="1223" grid="1" gridSize="10" guides="1" tooltips="1" connect="1" arrows="1" fold="1" page="1" pageScale="1" pageWidth="850" pageHeight="1100" math="0" shadow="0">
      <root>
        <mxCell id="0" />
        <mxCell id="1" parent="0" />
        <mxCell id="2ljxNgmDqB6YfOjgcQZT-61" value="" style="edgeStyle=orthogonalEdgeStyle;rounded=0;orthogonalLoop=1;jettySize=auto;html=1;" edge="1" parent="1" source="2ljxNgmDqB6YfOjgcQZT-1" target="2ljxNgmDqB6YfOjgcQZT-49">
          <mxGeometry relative="1" as="geometry">
            <Array as="points">
              <mxPoint x="880" y="150" />
              <mxPoint x="880" y="150" />
            </Array>
          </mxGeometry>
        </mxCell>
        <mxCell id="2ljxNgmDqB6YfOjgcQZT-1" value="&lt;h2&gt;&lt;b&gt;&lt;font color=&quot;#ffffff&quot;&gt;LEARN WEB-DEVELOPMENT 3 MONTHS&lt;/font&gt;&lt;/b&gt;&lt;/h2&gt;" style="rounded=0;whiteSpace=wrap;html=1;fillColor=#000080;" vertex="1" parent="1">
          <mxGeometry x="540" y="50" width="650" height="60" as="geometry" />
        </mxCell>
        <mxCell id="2ljxNgmDqB6YfOjgcQZT-6" value="" style="edgeStyle=orthogonalEdgeStyle;rounded=0;orthogonalLoop=1;jettySize=auto;html=1;exitX=0.5;exitY=1;exitDx=0;exitDy=0;entryX=0.5;entryY=0;entryDx=0;entryDy=0;" edge="1" parent="1" source="2ljxNgmDqB6YfOjgcQZT-3" target="2ljxNgmDqB6YfOjgcQZT-5">
          <mxGeometry relative="1" as="geometry">
            <mxPoint x="885" y="840.0000000000002" as="sourcePoint" />
            <mxPoint x="300" y="830" as="targetPoint" />
            <Array as="points">
              <mxPoint x="880" y="850" />
              <mxPoint x="295" y="850" />
            </Array>
          </mxGeometry>
        </mxCell>
        <mxCell id="2ljxNgmDqB6YfOjgcQZT-15" style="edgeStyle=orthogonalEdgeStyle;rounded=0;orthogonalLoop=1;jettySize=auto;html=1;entryX=0.5;entryY=0;entryDx=0;entryDy=0;" edge="1" parent="1" target="2ljxNgmDqB6YfOjgcQZT-8">
          <mxGeometry relative="1" as="geometry">
            <mxPoint x="1319" y="890" as="targetPoint" />
            <mxPoint x="850" y="820" as="sourcePoint" />
            <Array as="points">
              <mxPoint x="850" y="850" />
              <mxPoint x="1323" y="850" />
            </Array>
          </mxGeometry>
        </mxCell>
        <mxCell id="2ljxNgmDqB6YfOjgcQZT-3" value="&lt;h2&gt;&lt;b&gt;&lt;font color=&quot;#ffffff&quot;&gt;KEY SKILLS AND TECHNOLOGIES&lt;/font&gt;&lt;/b&gt;&lt;/h2&gt;" style="rounded=0;whiteSpace=wrap;html=1;fillColor=#006400;" vertex="1" parent="1">
          <mxGeometry x="715" y="760" width="330" height="60" as="geometry" />
        </mxCell>
        <mxCell id="2ljxNgmDqB6YfOjgcQZT-5" value="&lt;h2&gt;&lt;b style=&quot;background-color: rgb(0, 179, 0);&quot;&gt;&lt;font color=&quot;#ffffff&quot;&gt;ADVANCED HTML&lt;/font&gt;&lt;/b&gt;&lt;/h2&gt;" style="whiteSpace=wrap;html=1;rounded=0;fillColor=#00B300;" vertex="1" parent="1">
          <mxGeometry x="180" y="920" width="230" height="50" as="geometry" />
        </mxCell>
        <mxCell id="2ljxNgmDqB6YfOjgcQZT-8" value="&lt;h2&gt;&lt;b&gt;&lt;font color=&quot;#ffffff&quot;&gt;ADVANCED CSS&lt;/font&gt;&lt;/b&gt;&lt;/h2&gt;" style="rounded=0;whiteSpace=wrap;html=1;fillColor=#00B300;" vertex="1" parent="1">
          <mxGeometry x="1250" y="920" width="145" height="60" as="geometry" />
        </mxCell>
        <mxCell id="2ljxNgmDqB6YfOjgcQZT-21" value="" style="edgeStyle=orthogonalEdgeStyle;rounded=0;orthogonalLoop=1;jettySize=auto;html=1;" edge="1" parent="1" source="2ljxNgmDqB6YfOjgcQZT-11" target="2ljxNgmDqB6YfOjgcQZT-20">
          <mxGeometry relative="1" as="geometry">
            <Array as="points">
              <mxPoint x="885" y="1050" />
              <mxPoint x="748" y="1050" />
            </Array>
          </mxGeometry>
        </mxCell>
        <mxCell id="2ljxNgmDqB6YfOjgcQZT-26" value="" style="edgeStyle=orthogonalEdgeStyle;rounded=0;orthogonalLoop=1;jettySize=auto;html=1;" edge="1" parent="1" source="2ljxNgmDqB6YfOjgcQZT-11" target="2ljxNgmDqB6YfOjgcQZT-25">
          <mxGeometry relative="1" as="geometry">
            <Array as="points">
              <mxPoint x="885" y="1050" />
              <mxPoint x="1035" y="1050" />
            </Array>
          </mxGeometry>
        </mxCell>
        <mxCell id="2ljxNgmDqB6YfOjgcQZT-11" value="&lt;h2&gt;&lt;b style=&quot;background-color: rgb(0, 179, 0);&quot;&gt;&lt;font color=&quot;#ffffff&quot;&gt;ADVANCED JS&lt;/font&gt;&lt;/b&gt;&lt;/h2&gt;" style="rounded=0;whiteSpace=wrap;html=1;fillColor=#00B300;" vertex="1" parent="1">
          <mxGeometry x="820" y="920" width="120" height="50" as="geometry" />
        </mxCell>
        <mxCell id="2ljxNgmDqB6YfOjgcQZT-20" value="&lt;h2&gt;&lt;b&gt;&lt;font color=&quot;#ffffff&quot;&gt;NODE.JS&lt;/font&gt;&lt;/b&gt;&lt;/h2&gt;" style="whiteSpace=wrap;html=1;rounded=0;fillColor=#00B300;" vertex="1" parent="1">
          <mxGeometry x="655" y="1130" width="185" height="70" as="geometry" />
        </mxCell>
        <mxCell id="2ljxNgmDqB6YfOjgcQZT-25" value="&lt;h2&gt;&lt;b&gt;&lt;font color=&quot;#ffffff&quot;&gt;REACT&lt;/font&gt;&lt;/b&gt;&lt;/h2&gt;" style="whiteSpace=wrap;html=1;rounded=0;fillColor=#00B300;" vertex="1" parent="1">
          <mxGeometry x="955" y="1135" width="170" height="60" as="geometry" />
        </mxCell>
        <mxCell id="2ljxNgmDqB6YfOjgcQZT-32" value="" style="edgeStyle=orthogonalEdgeStyle;rounded=0;orthogonalLoop=1;jettySize=auto;html=1;exitX=0.455;exitY=0;exitDx=0;exitDy=0;exitPerimeter=0;" edge="1" parent="1" source="2ljxNgmDqB6YfOjgcQZT-28">
          <mxGeometry relative="1" as="geometry">
            <mxPoint x="555" y="570" as="targetPoint" />
            <Array as="points">
              <mxPoint x="880" y="400" />
              <mxPoint x="880" y="490" />
              <mxPoint x="555" y="490" />
            </Array>
          </mxGeometry>
        </mxCell>
        <mxCell id="2ljxNgmDqB6YfOjgcQZT-39" style="edgeStyle=orthogonalEdgeStyle;rounded=0;orthogonalLoop=1;jettySize=auto;html=1;entryX=0.5;entryY=0;entryDx=0;entryDy=0;" edge="1" parent="1" source="2ljxNgmDqB6YfOjgcQZT-28" target="2ljxNgmDqB6YfOjgcQZT-33">
          <mxGeometry relative="1" as="geometry">
            <mxPoint x="1150" y="550" as="targetPoint" />
            <Array as="points">
              <mxPoint x="880" y="490" />
              <mxPoint x="1150" y="490" />
            </Array>
          </mxGeometry>
        </mxCell>
        <mxCell id="2ljxNgmDqB6YfOjgcQZT-28" value="&lt;h2&gt;&lt;b style=&quot;background-color: rgb(0, 100, 0);&quot;&gt;&lt;font color=&quot;#ffffff&quot;&gt;NETWORK AND SECURITY&amp;nbsp;&lt;/font&gt;&lt;/b&gt;&lt;/h2&gt;" style="whiteSpace=wrap;html=1;rounded=0;fillColor=#006633;" vertex="1" parent="1">
          <mxGeometry x="690" y="400" width="380" height="60" as="geometry" />
        </mxCell>
        <mxCell id="2ljxNgmDqB6YfOjgcQZT-31" value="&lt;h2&gt;&lt;b&gt;&lt;font color=&quot;#ffffff&quot;&gt;COMPTIA SECURITY +&lt;/font&gt;&lt;/b&gt;&lt;/h2&gt;" style="whiteSpace=wrap;html=1;rounded=0;fillColor=#00b300;" vertex="1" parent="1">
          <mxGeometry x="425" y="570" width="240" height="60" as="geometry" />
        </mxCell>
        <mxCell id="2ljxNgmDqB6YfOjgcQZT-33" value="&lt;h2&gt;&lt;b&gt;&lt;font color=&quot;#ffffff&quot;&gt;COMPUTER NWTORK&lt;/font&gt;&lt;/b&gt;&lt;/h2&gt;" style="whiteSpace=wrap;html=1;rounded=0;fillColor=#00B300;" vertex="1" parent="1">
          <mxGeometry x="1035" y="570" width="230" height="60" as="geometry" />
        </mxCell>
        <mxCell id="2ljxNgmDqB6YfOjgcQZT-48" value="" style="endArrow=none;html=1;rounded=0;exitX=0.5;exitY=0;exitDx=0;exitDy=0;" edge="1" parent="1" source="2ljxNgmDqB6YfOjgcQZT-3">
          <mxGeometry width="50" height="50" relative="1" as="geometry">
            <mxPoint x="881" y="750" as="sourcePoint" />
            <mxPoint x="880" y="620" as="targetPoint" />
          </mxGeometry>
        </mxCell>
        <mxCell id="2ljxNgmDqB6YfOjgcQZT-49" value="&lt;b&gt;WEB 3 UX/UI DESIGN&amp;nbsp;&lt;/b&gt;" style="rounded=0;whiteSpace=wrap;html=1;" vertex="1" parent="1">
          <mxGeometry x="700" y="210" width="330" height="50" as="geometry" />
        </mxCell>
        <mxCell id="2ljxNgmDqB6YfOjgcQZT-50" value="&lt;h2&gt;&lt;b&gt;&lt;font color=&quot;#ffffff&quot;&gt;MODERN CRYPTOGRAPHY&lt;/font&gt;&lt;/b&gt;&lt;/h2&gt;" style="rounded=0;whiteSpace=wrap;html=1;fillColor=#00B300;" vertex="1" parent="1">
          <mxGeometry x="775" y="570" width="190" height="60" as="geometry" />
        </mxCell>
        <mxCell id="2ljxNgmDqB6YfOjgcQZT-55" value="" style="endArrow=none;html=1;rounded=0;exitX=0.559;exitY=-0.047;exitDx=0;exitDy=0;exitPerimeter=0;" edge="1" parent="1" source="2ljxNgmDqB6YfOjgcQZT-50">
          <mxGeometry width="50" height="50" relative="1" as="geometry">
            <mxPoint x="880" y="550" as="sourcePoint" />
            <mxPoint x="880" y="490" as="targetPoint" />
          </mxGeometry>
        </mxCell>
        <mxCell id="2ljxNgmDqB6YfOjgcQZT-60" value="" style="endArrow=classic;html=1;rounded=0;exitX=0.5;exitY=1;exitDx=0;exitDy=0;" edge="1" parent="1">
          <mxGeometry width="50" height="50" relative="1" as="geometry">
            <mxPoint x="882.51" y="266" as="sourcePoint" />
            <mxPoint x="877.49" y="400" as="targetPoint" />
            <Array as="points">
              <mxPoint x="877.49" y="260" />
            </Array>
          </mxGeometry>
        </mxCell>
        <mxCell id="2ljxNgmDqB6YfOjgcQZT-63" value="&lt;h2&gt;&lt;font color=&quot;#ffffff&quot;&gt;SQL&amp;nbsp;&lt;/font&gt;&lt;/h2&gt;" style="rounded=0;whiteSpace=wrap;html=1;fillColor=#00B300;" vertex="1" parent="1">
          <mxGeometry x="540" y="920" width="120" height="50" as="geometry" />
        </mxCell>
        <mxCell id="2ljxNgmDqB6YfOjgcQZT-66" value="" style="endArrow=classic;html=1;rounded=0;" edge="1" parent="1">
          <mxGeometry width="50" height="50" relative="1" as="geometry">
            <mxPoint x="600" y="850" as="sourcePoint" />
            <mxPoint x="600" y="920" as="targetPoint" />
          </mxGeometry>
        </mxCell>
        <mxCell id="2ljxNgmDqB6YfOjgcQZT-71" value="" style="endArrow=none;html=1;rounded=0;exitX=0.5;exitY=0;exitDx=0;exitDy=0;" edge="1" parent="1" source="2ljxNgmDqB6YfOjgcQZT-11">
          <mxGeometry width="50" height="50" relative="1" as="geometry">
            <mxPoint x="1170" y="810" as="sourcePoint" />
            <mxPoint x="880" y="850" as="targetPoint" />
          </mxGeometry>
        </mxCell>
      </root>
    </mxGraphModel>
  </diagram>
</mxfile>
